<?xml version="1.0" encoding="UTF-8" standalone="no"?>
<!DOCTYPE svg PUBLIC "-//W3C//DTD SVG 1.1//EN"
 "http://www.w3.org/Graphics/SVG/1.1/DTD/svg11.dtd">
<!-- Generated by graphviz version 2.47.0 (20210316.0004)
 -->
<!-- Title: dependencies Pages: 1 -->
<svg width="973pt" height="211pt"
 viewBox="0.00 0.00 973.00 211.00" xmlns="http://www.w3.org/2000/svg" xmlns:xlink="http://www.w3.org/1999/xlink">
<g id="graph0" class="graph" transform="scale(1 1) rotate(0) translate(4 207)">
<title>dependencies</title>
<polygon fill="white" stroke="transparent" points="-4,4 -4,-207 969,-207 969,4 -4,4"/>
<text text-anchor="start" x="461.51" y="-42.4" font-family="Times-12" font-weight="bold" font-size="14.00">Legend</text>
<polygon fill="#ffffb3" stroke="transparent" points="248.5,-10 248.5,-30 268.5,-30 268.5,-10 248.5,-10"/>
<text text-anchor="start" x="272.13" y="-15.4" font-family="Times-12" font-size="14.00"> &#160;Declarations</text>
<polygon fill="#8dd3c7" stroke="transparent" points="361.5,-10 361.5,-30 381.5,-30 381.5,-10 361.5,-10"/>
<text text-anchor="start" x="385.23" y="-15.4" font-family="Times-12" font-size="14.00"> &#160;Module</text>
<polygon fill="#80b1d3" stroke="transparent" points="447.5,-10 447.5,-30 467.5,-30 467.5,-10 447.5,-10"/>
<text text-anchor="start" x="471.28" y="-15.4" font-family="Times-12" font-size="14.00"> &#160;Bootstrap</text>
<polygon fill="#fdb462" stroke="transparent" points="544.5,-10 544.5,-30 564.5,-30 564.5,-10 544.5,-10"/>
<text text-anchor="start" x="568.17" y="-15.4" font-family="Times-12" font-size="14.00"> &#160;Providers</text>
<polygon fill="#fb8072" stroke="transparent" points="640.5,-10 640.5,-30 660.5,-30 660.5,-10 640.5,-10"/>
<text text-anchor="start" x="664.23" y="-15.4" font-family="Times-12" font-size="14.00"> &#160;Exports</text>
<g id="clust1" class="cluster">
<title>cluster_AppModule</title>
<polygon fill="none" stroke="black" stroke-dasharray="1,5" points="8,-70 8,-195 957,-195 957,-70 8,-70"/>
</g>
<g id="clust3" class="cluster">
<title>cluster_AppModule_imports</title>
<polygon fill="none" stroke="black" points="286,-78 286,-130 949,-130 949,-78 286,-78"/>
</g>
<g id="clust6" class="cluster">
<title>cluster_AppModule_providers</title>
<polygon fill="none" stroke="black" points="16,-78 16,-130 278,-130 278,-78 16,-78"/>
</g>
<!-- AuthModule -->
<g id="node1" class="node">
<title>AuthModule</title>
<polygon fill="#8dd3c7" stroke="black" points="940.55,-122 937.55,-126 916.55,-126 913.55,-122 853.45,-122 853.45,-86 940.55,-86 940.55,-122"/>
<text text-anchor="middle" x="897" y="-99.8" font-family="Times,serif" font-size="14.00">AuthModule</text>
</g>
<!-- AppModule -->
<g id="node7" class="node">
<title>AppModule</title>
<polygon fill="#8dd3c7" stroke="black" points="547.66,-187 544.66,-191 523.66,-191 520.66,-187 464.34,-187 464.34,-151 547.66,-151 547.66,-187"/>
<text text-anchor="middle" x="506" y="-164.8" font-family="Times,serif" font-size="14.00">AppModule</text>
</g>
<!-- AuthModule&#45;&gt;AppModule -->
<g id="edge1" class="edge">
<title>AuthModule&#45;&gt;AppModule</title>
<path fill="none" stroke="black" d="M897,-122.29C897,-144.21 897,-178 897,-178 897,-178 557.84,-178 557.84,-178"/>
<polygon fill="black" stroke="black" points="557.84,-174.5 547.84,-178 557.84,-181.5 557.84,-174.5"/>
</g>
<!-- CatsModule -->
<g id="node2" class="node">
<title>CatsModule</title>
<polygon fill="#8dd3c7" stroke="black" points="835.44,-122 832.44,-126 811.44,-126 808.44,-122 750.56,-122 750.56,-86 835.44,-86 835.44,-122"/>
<text text-anchor="middle" x="793" y="-99.8" font-family="Times,serif" font-size="14.00">CatsModule</text>
</g>
<!-- CatsModule&#45;&gt;AppModule -->
<g id="edge2" class="edge">
<title>CatsModule&#45;&gt;AppModule</title>
<path fill="none" stroke="black" d="M793,-122.11C793,-141.34 793,-169 793,-169 793,-169 557.73,-169 557.73,-169"/>
<polygon fill="black" stroke="black" points="557.73,-165.5 547.73,-169 557.73,-172.5 557.73,-165.5"/>
</g>
<!-- LatihanModule -->
<g id="node3" class="node">
<title>LatihanModule</title>
<polygon fill="#8dd3c7" stroke="black" points="733.31,-122 730.31,-126 709.31,-126 706.31,-122 630.69,-122 630.69,-86 733.31,-86 733.31,-122"/>
<text text-anchor="middle" x="682" y="-99.8" font-family="Times,serif" font-size="14.00">LatihanModule</text>
</g>
<!-- LatihanModule&#45;&gt;AppModule -->
<g id="edge3" class="edge">
<title>LatihanModule&#45;&gt;AppModule</title>
<path fill="none" stroke="black" d="M682,-122.03C682,-138.4 682,-160 682,-160 682,-160 557.71,-160 557.71,-160"/>
<polygon fill="black" stroke="black" points="557.71,-156.5 547.71,-160 557.71,-163.5 557.71,-156.5"/>
</g>
<!-- PrismaModule -->
<g id="node4" class="node">
<title>PrismaModule</title>
<polygon fill="#8dd3c7" stroke="black" points="613.43,-122 610.43,-126 589.43,-126 586.43,-122 514.57,-122 514.57,-86 613.43,-86 613.43,-122"/>
<text text-anchor="middle" x="564" y="-99.8" font-family="Times,serif" font-size="14.00">PrismaModule</text>
</g>
<!-- PrismaModule&#45;&gt;AppModule -->
<g id="edge4" class="edge">
<title>PrismaModule&#45;&gt;AppModule</title>
<path fill="none" stroke="black" d="M531.31,-122.11C531.31,-122.11 531.31,-140.99 531.31,-140.99"/>
<polygon fill="black" stroke="black" points="527.81,-140.99 531.31,-150.99 534.81,-140.99 527.81,-140.99"/>
</g>
<!-- SchoolModule -->
<g id="node5" class="node">
<title>SchoolModule</title>
<polygon fill="#8dd3c7" stroke="black" points="497.44,-122 494.44,-126 473.44,-126 470.44,-122 398.56,-122 398.56,-86 497.44,-86 497.44,-122"/>
<text text-anchor="middle" x="448" y="-99.8" font-family="Times,serif" font-size="14.00">SchoolModule</text>
</g>
<!-- SchoolModule&#45;&gt;AppModule -->
<g id="edge5" class="edge">
<title>SchoolModule&#45;&gt;AppModule</title>
<path fill="none" stroke="black" d="M480.7,-122.11C480.7,-122.11 480.7,-140.99 480.7,-140.99"/>
<polygon fill="black" stroke="black" points="477.2,-140.99 480.7,-150.99 484.2,-140.99 477.2,-140.99"/>
</g>
<!-- TaskModule -->
<g id="node6" class="node">
<title>TaskModule</title>
<polygon fill="#8dd3c7" stroke="black" points="380.26,-122 377.26,-126 356.26,-126 353.26,-122 293.74,-122 293.74,-86 380.26,-86 380.26,-122"/>
<text text-anchor="middle" x="337" y="-99.8" font-family="Times,serif" font-size="14.00">TaskModule</text>
</g>
<!-- TaskModule&#45;&gt;AppModule -->
<g id="edge6" class="edge">
<title>TaskModule&#45;&gt;AppModule</title>
<path fill="none" stroke="black" d="M337,-122.03C337,-138.4 337,-160 337,-160 337,-160 454.22,-160 454.22,-160"/>
<polygon fill="black" stroke="black" points="454.22,-163.5 464.22,-160 454.22,-156.5 454.22,-163.5"/>
</g>
<!-- AppService -->
<g id="node8" class="node">
<title>AppService</title>
<ellipse fill="#fdb462" stroke="black" cx="213" cy="-104" rx="56.74" ry="18"/>
<text text-anchor="middle" x="213" y="-99.8" font-family="Times,serif" font-size="14.00">AppService</text>
</g>
<!-- AppService&#45;&gt;AppModule -->
<g id="edge7" class="edge">
<title>AppService&#45;&gt;AppModule</title>
<path fill="none" stroke="black" d="M213,-122.11C213,-141.34 213,-169 213,-169 213,-169 454.33,-169 454.33,-169"/>
<polygon fill="black" stroke="black" points="454.33,-172.5 464.33,-169 454.33,-165.5 454.33,-172.5"/>
</g>
<!-- CatsService -->
<g id="node9" class="node">
<title>CatsService</title>
<ellipse fill="#fdb462" stroke="black" cx="81" cy="-104" rx="57.32" ry="18"/>
<text text-anchor="middle" x="81" y="-99.8" font-family="Times,serif" font-size="14.00">CatsService</text>
</g>
<!-- CatsService&#45;&gt;AppModule -->
<g id="edge8" class="edge">
<title>CatsService&#45;&gt;AppModule</title>
<path fill="none" stroke="black" d="M81,-122.29C81,-144.21 81,-178 81,-178 81,-178 454.09,-178 454.09,-178"/>
<polygon fill="black" stroke="black" points="454.09,-181.5 464.09,-178 454.09,-174.5 454.09,-181.5"/>
</g>
</g>
</svg>
