<?xml version="1.0" encoding="UTF-8" standalone="no"?>
<!DOCTYPE svg PUBLIC "-//W3C//DTD SVG 1.1//EN"
 "http://www.w3.org/Graphics/SVG/1.1/DTD/svg11.dtd">
<!-- Generated by graphviz version 2.47.0 (20210316.0004)
 -->
<!-- Title: dependencies Pages: 1 -->
<svg width="1369pt" height="363pt"
 viewBox="0.00 0.00 1369.00 363.00" xmlns="http://www.w3.org/2000/svg" xmlns:xlink="http://www.w3.org/1999/xlink">
<g id="graph0" class="graph" transform="scale(1 1) rotate(0) translate(4 359)">
<title>dependencies</title>
<polygon fill="white" stroke="transparent" points="-4,4 -4,-359 1365,-359 1365,4 -4,4"/>
<text text-anchor="start" x="659.51" y="-42.4" font-family="Times-12" font-weight="bold" font-size="14.00">Legend</text>
<polygon fill="#ffffb3" stroke="transparent" points="446.5,-10 446.5,-30 466.5,-30 466.5,-10 446.5,-10"/>
<text text-anchor="start" x="470.13" y="-15.4" font-family="Times-12" font-size="14.00"> &#160;Declarations</text>
<polygon fill="#8dd3c7" stroke="transparent" points="559.5,-10 559.5,-30 579.5,-30 579.5,-10 559.5,-10"/>
<text text-anchor="start" x="583.23" y="-15.4" font-family="Times-12" font-size="14.00"> &#160;Module</text>
<polygon fill="#80b1d3" stroke="transparent" points="645.5,-10 645.5,-30 665.5,-30 665.5,-10 645.5,-10"/>
<text text-anchor="start" x="669.28" y="-15.4" font-family="Times-12" font-size="14.00"> &#160;Bootstrap</text>
<polygon fill="#fdb462" stroke="transparent" points="742.5,-10 742.5,-30 762.5,-30 762.5,-10 742.5,-10"/>
<text text-anchor="start" x="766.17" y="-15.4" font-family="Times-12" font-size="14.00"> &#160;Providers</text>
<polygon fill="#fb8072" stroke="transparent" points="838.5,-10 838.5,-30 858.5,-30 858.5,-10 838.5,-10"/>
<text text-anchor="start" x="862.23" y="-15.4" font-family="Times-12" font-size="14.00"> &#160;Exports</text>
<g id="clust1" class="cluster">
<title>cluster_AppModule</title>
<polygon fill="none" stroke="black" stroke-dasharray="1,5" points="630,-70 630,-347 1055,-347 1055,-70 630,-70"/>
</g>
<g id="clust3" class="cluster">
<title>cluster_AppModule_imports</title>
<polygon fill="none" stroke="black" points="650,-154 650,-282 986,-282 986,-154 650,-154"/>
</g>
<g id="clust6" class="cluster">
<title>cluster_AppModule_providers</title>
<polygon fill="none" stroke="black" points="638,-78 638,-130 900,-130 900,-78 638,-78"/>
</g>
<g id="clust7" class="cluster">
<title>cluster_AuthModule</title>
<polygon fill="none" stroke="black" stroke-dasharray="1,5" points="8,-146 8,-214 290,-214 290,-146 8,-146"/>
</g>
<g id="clust12" class="cluster">
<title>cluster_AuthModule_providers</title>
<polygon fill="none" stroke="black" points="16,-154 16,-206 282,-206 282,-154 16,-154"/>
</g>
<g id="clust19" class="cluster">
<title>cluster_LatihanModule</title>
<polygon fill="none" stroke="black" stroke-dasharray="1,5" points="1063,-70 1063,-138 1233,-138 1233,-70 1063,-70"/>
</g>
<g id="clust24" class="cluster">
<title>cluster_LatihanModule_providers</title>
<polygon fill="none" stroke="black" points="1071,-78 1071,-130 1225,-130 1225,-78 1071,-78"/>
</g>
<g id="clust25" class="cluster">
<title>cluster_PrismaModule</title>
<polygon fill="none" stroke="black" stroke-dasharray="1,5" points="1063,-222 1063,-290 1353,-290 1353,-222 1063,-222"/>
</g>
<g id="clust28" class="cluster">
<title>cluster_PrismaModule_exports</title>
<polygon fill="none" stroke="black" points="1229,-230 1229,-282 1345,-282 1345,-230 1229,-230"/>
</g>
<g id="clust30" class="cluster">
<title>cluster_PrismaModule_providers</title>
<polygon fill="none" stroke="black" points="1071,-230 1071,-282 1221,-282 1221,-230 1071,-230"/>
</g>
<g id="clust31" class="cluster">
<title>cluster_SchoolModule</title>
<polygon fill="none" stroke="black" stroke-dasharray="1,5" points="298,-146 298,-214 464,-214 464,-146 298,-146"/>
</g>
<g id="clust36" class="cluster">
<title>cluster_SchoolModule_providers</title>
<polygon fill="none" stroke="black" points="306,-154 306,-206 456,-206 456,-154 306,-154"/>
</g>
<g id="clust37" class="cluster">
<title>cluster_TaskModule</title>
<polygon fill="none" stroke="black" stroke-dasharray="1,5" points="472,-146 472,-214 622,-214 622,-146 472,-146"/>
</g>
<g id="clust42" class="cluster">
<title>cluster_TaskModule_providers</title>
<polygon fill="none" stroke="black" points="480,-154 480,-206 614,-206 614,-154 480,-154"/>
</g>
<!-- AuthModule -->
<g id="node1" class="node">
<title>AuthModule</title>
<polygon fill="#8dd3c7" stroke="black" points="745.55,-274 742.55,-278 721.55,-278 718.55,-274 658.45,-274 658.45,-238 745.55,-238 745.55,-274"/>
<text text-anchor="middle" x="702" y="-251.8" font-family="Times,serif" font-size="14.00">AuthModule</text>
</g>
<!-- AppModule -->
<g id="node7" class="node">
<title>AppModule</title>
<polygon fill="#8dd3c7" stroke="black" points="996.66,-339 993.66,-343 972.66,-343 969.66,-339 913.34,-339 913.34,-303 996.66,-303 996.66,-339"/>
<text text-anchor="middle" x="955" y="-316.8" font-family="Times,serif" font-size="14.00">AppModule</text>
</g>
<!-- AuthModule&#45;&gt;AppModule -->
<g id="edge1" class="edge">
<title>AuthModule&#45;&gt;AppModule</title>
<path fill="none" stroke="black" d="M702,-274.04C702,-295.66 702,-329 702,-329 702,-329 903.22,-329 903.22,-329"/>
<polygon fill="black" stroke="black" points="903.22,-332.5 913.22,-329 903.22,-325.5 903.22,-332.5"/>
</g>
<!-- CatsModule -->
<g id="node2" class="node">
<title>CatsModule</title>
<polygon fill="#8dd3c7" stroke="black" points="858.44,-198 855.44,-202 834.44,-202 831.44,-198 773.56,-198 773.56,-162 858.44,-162 858.44,-198"/>
<text text-anchor="middle" x="816" y="-175.8" font-family="Times,serif" font-size="14.00">CatsModule</text>
</g>
<!-- CatsModule&#45;&gt;AppModule -->
<g id="edge2" class="edge">
<title>CatsModule&#45;&gt;AppModule</title>
<path fill="none" stroke="black" d="M858.38,-180C863.39,-180 866.76,-180 866.76,-180 866.76,-180 866.76,-314 866.76,-314 866.76,-314 903.21,-314 903.21,-314"/>
<polygon fill="black" stroke="black" points="903.21,-317.5 913.21,-314 903.21,-310.5 903.21,-317.5"/>
</g>
<!-- LatihanModule -->
<g id="node3" class="node">
<title>LatihanModule</title>
<polygon fill="#8dd3c7" stroke="black" points="978.31,-198 975.31,-202 954.31,-202 951.31,-198 875.69,-198 875.69,-162 978.31,-162 978.31,-198"/>
<text text-anchor="middle" x="927" y="-175.8" font-family="Times,serif" font-size="14.00">LatihanModule</text>
</g>
<!-- LatihanModule&#45;&gt;AppModule -->
<g id="edge3" class="edge">
<title>LatihanModule&#45;&gt;AppModule</title>
<path fill="none" stroke="black" d="M972.77,-198.14C972.77,-198.14 972.77,-292.93 972.77,-292.93"/>
<polygon fill="black" stroke="black" points="969.27,-292.92 972.77,-302.93 976.27,-292.93 969.27,-292.92"/>
</g>
<!-- PrismaModule -->
<g id="node4" class="node">
<title>PrismaModule</title>
<polygon fill="#8dd3c7" stroke="black" points="756.43,-198 753.43,-202 732.43,-202 729.43,-198 657.57,-198 657.57,-162 756.43,-162 756.43,-198"/>
<text text-anchor="middle" x="707" y="-175.8" font-family="Times,serif" font-size="14.00">PrismaModule</text>
</g>
<!-- PrismaModule&#45;&gt;AuthModule -->
<g id="edge9" class="edge">
<title>PrismaModule&#45;&gt;AuthModule</title>
<path fill="none" stroke="black" d="M680.11,-198.01C680.11,-198.01 680.11,-227.85 680.11,-227.85"/>
<polygon fill="black" stroke="black" points="676.61,-227.85 680.11,-237.85 683.61,-227.85 676.61,-227.85"/>
</g>
<!-- SchoolModule -->
<g id="node5" class="node">
<title>SchoolModule</title>
<polygon fill="#8dd3c7" stroke="black" points="862.44,-274 859.44,-278 838.44,-278 835.44,-274 763.56,-274 763.56,-238 862.44,-238 862.44,-274"/>
<text text-anchor="middle" x="813" y="-251.8" font-family="Times,serif" font-size="14.00">SchoolModule</text>
</g>
<!-- PrismaModule&#45;&gt;SchoolModule -->
<g id="edge16" class="edge">
<title>PrismaModule&#45;&gt;SchoolModule</title>
<path fill="none" stroke="black" d="M753.61,-198.01C753.61,-220.49 753.61,-256 753.61,-256 753.61,-256 754.61,-256 754.61,-256"/>
<polygon fill="black" stroke="black" points="753.68,-259.5 763.68,-256 753.68,-252.5 753.68,-259.5"/>
</g>
<!-- TaskModule -->
<g id="node6" class="node">
<title>TaskModule</title>
<polygon fill="#8dd3c7" stroke="black" points="967.26,-274 964.26,-278 943.26,-278 940.26,-274 880.74,-274 880.74,-238 967.26,-238 967.26,-274"/>
<text text-anchor="middle" x="924" y="-251.8" font-family="Times,serif" font-size="14.00">TaskModule</text>
</g>
<!-- PrismaModule&#45;&gt;TaskModule -->
<g id="edge18" class="edge">
<title>PrismaModule&#45;&gt;TaskModule</title>
<path fill="none" stroke="black" d="M751,-198.11C751,-207.9 751,-218 751,-218 751,-218 938.46,-218 938.46,-218 938.46,-218 938.46,-227.89 938.46,-227.89"/>
<polygon fill="black" stroke="black" points="934.96,-227.89 938.46,-237.89 941.96,-227.89 934.96,-227.89"/>
</g>
<!-- PrismaModule&#45;&gt;AppModule -->
<g id="edge4" class="edge">
<title>PrismaModule&#45;&gt;AppModule</title>
<path fill="none" stroke="black" d="M748.38,-198.24C748.38,-236.99 748.38,-324 748.38,-324 748.38,-324 903.19,-324 903.19,-324"/>
<polygon fill="black" stroke="black" points="903.19,-327.5 913.19,-324 903.19,-320.5 903.19,-327.5"/>
</g>
<!-- PrismaService  -->
<g id="node13" class="node">
<title>PrismaService </title>
<polygon fill="#fb8072" stroke="black" points="1337.36,-274 1236.64,-274 1236.64,-238 1337.36,-238 1337.36,-274"/>
<text text-anchor="middle" x="1287" y="-251.8" font-family="Times,serif" font-size="14.00">PrismaService </text>
</g>
<!-- PrismaModule&#45;&gt;PrismaService  -->
<g id="edge14" class="edge">
<title>PrismaModule&#45;&gt;PrismaService </title>
<path fill="none" stroke="black" stroke-dasharray="5,2" d="M702,-198.17C702,-202.05 702,-205 702,-205 702,-205 1287,-205 1287,-205 1287,-205 1287,-227.88 1287,-227.88"/>
<polygon fill="black" stroke="black" points="1283.5,-227.88 1287,-237.88 1290.5,-227.88 1283.5,-227.88"/>
</g>
<!-- SchoolModule&#45;&gt;AppModule -->
<g id="edge5" class="edge">
<title>SchoolModule&#45;&gt;AppModule</title>
<path fill="none" stroke="black" d="M813,-274.22C813,-292.83 813,-319 813,-319 813,-319 903.16,-319 903.16,-319"/>
<polygon fill="black" stroke="black" points="903.16,-322.5 913.16,-319 903.16,-315.5 903.16,-322.5"/>
</g>
<!-- TaskModule&#45;&gt;AppModule -->
<g id="edge6" class="edge">
<title>TaskModule&#45;&gt;AppModule</title>
<path fill="none" stroke="black" d="M940.28,-274.11C940.28,-274.11 940.28,-292.99 940.28,-292.99"/>
<polygon fill="black" stroke="black" points="936.78,-292.99 940.28,-302.99 943.78,-292.99 936.78,-292.99"/>
</g>
<!-- AppService -->
<g id="node8" class="node">
<title>AppService</title>
<ellipse fill="#fdb462" stroke="black" cx="703" cy="-104" rx="56.74" ry="18"/>
<text text-anchor="middle" x="703" y="-99.8" font-family="Times,serif" font-size="14.00">AppService</text>
</g>
<!-- AppService&#45;&gt;AppModule -->
<g id="edge7" class="edge">
<title>AppService&#45;&gt;AppModule</title>
<path fill="none" stroke="black" d="M652.08,-111.92C652.08,-152.36 652.08,-334 652.08,-334 652.08,-334 903.2,-334 903.2,-334"/>
<polygon fill="black" stroke="black" points="903.2,-337.5 913.2,-334 903.2,-330.5 903.2,-337.5"/>
</g>
<!-- CatsService -->
<g id="node9" class="node">
<title>CatsService</title>
<ellipse fill="#fdb462" stroke="black" cx="835" cy="-104" rx="57.32" ry="18"/>
<text text-anchor="middle" x="835" y="-99.8" font-family="Times,serif" font-size="14.00">CatsService</text>
</g>
<!-- CatsService&#45;&gt;CatsModule -->
<g id="edge12" class="edge">
<title>CatsService&#45;&gt;CatsModule</title>
<path fill="none" stroke="black" d="M818.03,-121.25C818.03,-121.25 818.03,-151.76 818.03,-151.76"/>
<polygon fill="black" stroke="black" points="814.53,-151.76 818.03,-161.76 821.53,-151.76 814.53,-151.76"/>
</g>
<!-- CatsService&#45;&gt;AppModule -->
<g id="edge8" class="edge">
<title>CatsService&#45;&gt;AppModule</title>
<path fill="none" stroke="black" d="M871.3,-118.09C871.3,-164.41 871.3,-309 871.3,-309 871.3,-309 903.15,-309 903.15,-309"/>
<polygon fill="black" stroke="black" points="903.15,-312.5 913.15,-309 903.15,-305.5 903.15,-312.5"/>
</g>
<!-- AuthService -->
<g id="node10" class="node">
<title>AuthService</title>
<ellipse fill="#fdb462" stroke="black" cx="215" cy="-180" rx="59.11" ry="18"/>
<text text-anchor="middle" x="215" y="-175.8" font-family="Times,serif" font-size="14.00">AuthService</text>
</g>
<!-- AuthService&#45;&gt;AuthModule -->
<g id="edge10" class="edge">
<title>AuthService&#45;&gt;AuthModule</title>
<path fill="none" stroke="black" d="M215,-198.03C215,-218.77 215,-250 215,-250 215,-250 648.35,-250 648.35,-250"/>
<polygon fill="black" stroke="black" points="648.35,-253.5 658.35,-250 648.35,-246.5 648.35,-253.5"/>
</g>
<!-- JwtStrategy -->
<g id="node11" class="node">
<title>JwtStrategy</title>
<ellipse fill="#fdb462" stroke="black" cx="81" cy="-180" rx="56.76" ry="18"/>
<text text-anchor="middle" x="81" y="-175.8" font-family="Times,serif" font-size="14.00">JwtStrategy</text>
</g>
<!-- JwtStrategy&#45;&gt;AuthModule -->
<g id="edge11" class="edge">
<title>JwtStrategy&#45;&gt;AuthModule</title>
<path fill="none" stroke="black" d="M81,-198.2C81,-222.36 81,-262 81,-262 81,-262 648.33,-262 648.33,-262"/>
<polygon fill="black" stroke="black" points="648.33,-265.5 658.33,-262 648.33,-258.5 648.33,-265.5"/>
</g>
<!-- LatihanService -->
<g id="node12" class="node">
<title>LatihanService</title>
<ellipse fill="#fdb462" stroke="black" cx="1148" cy="-104" rx="69.48" ry="18"/>
<text text-anchor="middle" x="1148" y="-99.8" font-family="Times,serif" font-size="14.00">LatihanService</text>
</g>
<!-- LatihanService&#45;&gt;LatihanModule -->
<g id="edge13" class="edge">
<title>LatihanService&#45;&gt;LatihanModule</title>
<path fill="none" stroke="black" d="M1078.31,-104C1016.23,-104 935.16,-104 935.16,-104 935.16,-104 935.16,-151.99 935.16,-151.99"/>
<polygon fill="black" stroke="black" points="931.66,-151.99 935.16,-161.99 938.66,-151.99 931.66,-151.99"/>
</g>
<!-- PrismaService -->
<g id="node14" class="node">
<title>PrismaService</title>
<ellipse fill="#fdb462" stroke="black" cx="1146" cy="-256" rx="66.63" ry="18"/>
<text text-anchor="middle" x="1146" y="-251.8" font-family="Times,serif" font-size="14.00">PrismaService</text>
</g>
<!-- PrismaService&#45;&gt;PrismaModule -->
<g id="edge15" class="edge">
<title>PrismaService&#45;&gt;PrismaModule</title>
<path fill="none" stroke="black" d="M1146,-237.85C1146,-225.73 1146,-212 1146,-212 1146,-212 723.89,-212 723.89,-212 723.89,-212 723.89,-208.24 723.89,-208.24"/>
<polygon fill="black" stroke="black" points="727.39,-208.24 723.89,-198.24 720.39,-208.24 727.39,-208.24"/>
</g>
<!-- SchoolService -->
<g id="node15" class="node">
<title>SchoolService</title>
<ellipse fill="#fdb462" stroke="black" cx="381" cy="-180" rx="66.63" ry="18"/>
<text text-anchor="middle" x="381" y="-175.8" font-family="Times,serif" font-size="14.00">SchoolService</text>
</g>
<!-- SchoolService&#45;&gt;SchoolModule -->
<g id="edge17" class="edge">
<title>SchoolService&#45;&gt;SchoolModule</title>
<path fill="none" stroke="black" d="M381,-198.19C381,-213.18 381,-232 381,-232 381,-232 768.78,-232 768.78,-232 768.78,-232 768.78,-232.58 768.78,-232.58"/>
<polygon fill="black" stroke="black" points="765.28,-227.81 768.78,-237.81 772.28,-227.81 765.28,-227.81"/>
</g>
<!-- TaskService -->
<g id="node16" class="node">
<title>TaskService</title>
<ellipse fill="#fdb462" stroke="black" cx="547" cy="-180" rx="58.53" ry="18"/>
<text text-anchor="middle" x="547" y="-175.8" font-family="Times,serif" font-size="14.00">TaskService</text>
</g>
<!-- TaskService&#45;&gt;TaskModule -->
<g id="edge19" class="edge">
<title>TaskService&#45;&gt;TaskModule</title>
<path fill="none" stroke="black" d="M547,-198.04C547,-210.56 547,-225 547,-225 547,-225 909.54,-225 909.54,-225 909.54,-225 909.54,-227.97 909.54,-227.97"/>
<polygon fill="black" stroke="black" points="906.04,-227.97 909.54,-237.97 913.04,-227.97 906.04,-227.97"/>
</g>
</g>
</svg>
